<svg width="111" height="52" viewBox="0 0 111 52" fill="none" xmlns="http://www.w3.org/2000/svg">
<path d="M33 18H4V47H33V18Z" fill="white"/>
<path d="M45.9946 5H4V15.2627H35.7389V47H46L45.9946 5Z" fill="white"/>
<path d="M74 23.9995H70.623L69.2287 22.5278C67.7515 23.5066 66.0282 24.0183 64.2716 23.9995C61.9508 24.0154 59.7087 23.1344 57.9882 21.5307C57.0214 20.674 56.252 19.6065 55.7357 18.4057C55.2193 17.2048 54.9691 15.9007 55.003 14.5879C54.9728 13.2964 55.2088 12.013 55.6955 10.8223C56.1823 9.63154 56.9086 8.5606 57.8267 7.68005C59.5004 6.01893 61.7179 5.0638 64.0419 5.00308C66.3658 4.94236 68.6275 5.78047 70.3809 7.35206C71.4275 8.24723 72.2622 9.37629 72.8214 10.6534C73.3806 11.9305 73.6497 13.3221 73.6081 14.7224C73.6083 15.8976 73.3833 17.0613 72.946 18.1469C72.5086 19.2324 71.8675 20.2185 71.0595 21.0485L74 23.9995ZM66.6111 16.416L69.1926 19.063C69.7541 18.4635 70.1941 17.7548 70.4869 16.9785C70.7797 16.2021 70.9195 15.3734 70.8981 14.5409C70.9218 13.6267 70.7657 12.717 70.439 11.8665C70.1123 11.0161 69.6218 10.2425 68.9972 9.59233C68.386 8.94159 67.6504 8.42838 66.8369 8.08512C66.0233 7.74187 65.1495 7.57602 64.2705 7.59804C63.3943 7.57009 62.5222 7.73334 61.7116 8.07705C60.901 8.42076 60.1703 8.93716 59.5673 9.59233C58.9495 10.2601 58.4672 11.048 58.1485 11.9098C57.8297 12.7717 57.681 13.6902 57.711 14.6119C57.6805 15.5138 57.8351 16.4121 58.1644 17.2484C58.4938 18.0846 58.9906 18.84 59.6225 19.4653C60.2198 20.0823 60.9295 20.5718 61.7108 20.906C62.4922 21.2401 63.3299 21.4123 64.176 21.4126C65.2764 21.4293 66.3617 21.1472 67.3225 20.5948L63.1396 16.4171L66.6111 16.416Z" fill="white"/>
<path d="M80.8563 5V16.241C80.762 17.4656 81.0391 18.6902 81.6524 19.7586C82.0509 20.2593 82.5593 20.6641 83.1393 20.9424C83.7193 21.2207 84.3557 21.3653 85.0006 21.3653C85.6455 21.3653 86.282 21.2207 86.8621 20.9424C87.4421 20.6641 87.9505 20.2593 88.3489 19.7586C88.9673 18.6921 89.2444 17.4659 89.1439 16.241V5H91.9958V17.0138C92.0274 17.9054 91.8791 18.7943 91.5595 19.6287C91.2398 20.4631 90.7552 21.2265 90.134 21.8743C89.4639 22.5474 88.6648 23.0821 87.7833 23.4471C86.9017 23.812 85.9554 24 84.9995 24C84.0436 24 83.0973 23.812 82.2157 23.4471C81.3342 23.0821 80.5351 22.5474 79.865 21.8743C79.2438 21.2265 78.7594 20.4632 78.4399 19.6287C78.1205 18.7942 77.9723 17.9053 78.0043 17.0138V5H80.8563Z" fill="white"/>
<path d="M107 7.6947H99.009V12.261H106.768V14.9568H99.009V21.3053H107V24H96V5H107V7.6947Z" fill="white"/>
<path d="M56 47V28.0042H59.0379C60.1243 27.9778 61.2101 28.0768 62.271 28.2988C63.0297 28.4711 63.733 28.8128 64.3211 29.2951C64.9046 29.801 65.3646 30.4197 65.6694 31.1086C66.0016 31.805 66.1754 32.5589 66.1795 33.3221C66.1879 33.9774 66.0434 34.6264 65.7563 35.2236C65.4692 35.8209 65.0465 36.3517 64.5177 36.779C65.556 37.0994 66.4499 37.7379 67.0563 38.5924C67.7808 39.6228 68.1039 40.857 67.9707 42.0857C67.8375 43.3144 67.2562 44.462 66.3254 45.3339C65.695 45.9359 64.9175 46.3837 64.0606 46.6384C62.9343 46.8996 61.7762 47.0196 60.6164 46.9954L56 47ZM59.0511 36.1601H60.0062C60.9035 36.2322 61.7961 35.9792 62.5013 35.4529C62.7799 35.1757 62.9941 34.847 63.1303 34.4877C63.2665 34.1285 63.3217 33.7467 63.2924 33.3663C63.3218 32.9914 63.2646 32.615 63.1247 32.2629C62.9849 31.9107 62.7656 31.5912 62.482 31.3262C61.8175 30.8234 60.9755 30.5748 60.1244 30.6303H59.0523L59.0511 36.1601ZM59.0511 44.3048H60.936C62.0119 44.3875 63.0851 44.1179 63.9738 43.542C64.3008 43.2882 64.5625 42.9681 64.7392 42.6058C64.9159 42.2434 65.003 41.8482 64.994 41.4497C65.0009 41.0588 64.9165 40.6713 64.7469 40.3143C64.5774 39.9574 64.3267 39.6396 64.0124 39.3835C63.0143 38.7345 61.802 38.4423 60.5947 38.5595H59.0511V44.3048Z" fill="white"/>
<path d="M70.0053 37.4232C69.9918 36.1793 70.2348 34.9462 70.7189 33.802C71.203 32.6579 71.9176 31.6278 72.8175 30.777C73.6954 29.8799 74.7446 29.1715 75.9014 28.6944C77.0583 28.2173 78.2989 27.9815 79.5486 28.0011C82.0506 28.0141 84.4465 29.022 86.2159 30.806C87.9853 32.59 88.9853 35.006 88.9987 37.5292C89.0199 38.7819 88.7817 40.0252 88.2993 41.1798C87.817 42.3343 87.1011 43.3747 86.1974 44.2344C84.4584 45.9525 82.1371 46.9401 79.7033 46.9974C77.2695 47.0546 74.905 46.1771 73.0885 44.5427C72.0799 43.6636 71.2794 42.5678 70.7458 41.3357C70.2123 40.1037 69.9593 38.7668 70.0053 37.4232V37.4232ZM72.7709 37.4592C72.7415 38.3887 72.9064 39.3141 73.2549 40.1751C73.6034 41.0361 74.1277 41.8135 74.7938 42.4567C76.0558 43.7173 77.7622 44.4213 79.5384 44.4143C81.3146 44.4074 83.0155 43.69 84.2677 42.4195C85.5243 41.0991 86.2278 39.341 86.2321 37.5109C86.2363 35.6807 85.5409 33.9193 84.2905 32.593C83.675 31.9444 82.9324 31.4322 82.1098 31.089C81.2873 30.7459 80.4028 30.5793 79.5129 30.5999C78.6215 30.5817 77.736 30.7493 76.9118 31.0923C76.0876 31.4353 75.3426 31.9461 74.7233 32.593C74.0858 33.2266 73.5837 33.9851 73.248 34.8218C72.9122 35.6585 72.7498 36.5557 72.7709 37.4581V37.4592Z" fill="white"/>
<path d="M91 46.8668V27L104.256 41.192V28.2664H107V48L93.7429 33.8446V46.8679L91 46.8668Z" fill="white"/>
</svg>
